<?xml version="1.0" encoding="UTF-8"?>
<svg version="1.1" xmlns="http://www.w3.org/2000/svg" width="489" height="408">
<path d="M0 0 C161.37 0 322.74 0 489 0 C489 134.64 489 269.28 489 408 C327.63 408 166.26 408 0 408 C0 273.36 0 138.72 0 0 Z " fill="#FEFEFE" transform="translate(0,0)"/>
<path d="M0 0 C4.88169605 2.26650174 7.59625754 5.19251507 10 10 C10.94742987 15.32263972 10.01777172 19.47334242 7 24 C5.4840625 25.06734375 5.4840625 25.06734375 3.9375 26.15625 C1.33558622 28.26926915 0.55202012 29.65263568 0.1953125 32.98828125 C0.14268653 34.42891715 0.11984687 35.87091242 0.125 37.3125 C0.104375 38.05306641 0.08375 38.79363281 0.0625 39.55664062 C0.0156879 41.37060942 0.00426455 43.18543229 0 45 C1.00039307 44.9685791 2.00078613 44.9371582 3.03149414 44.90478516 C40.59804532 43.83050759 69.8364975 49.53479915 98 76 C98.67675781 76.58910156 99.35351562 77.17820312 100.05078125 77.78515625 C107.64101814 84.70611373 113.83913204 94.60237917 118 104 C118 104.99 118 105.98 118 107 C119.299375 106.9175 120.59875 106.835 121.9375 106.75 C127.39178194 106.7670713 131.28088793 108.3828148 136 111 C136.75410156 111.4125 137.50820313 111.825 138.28515625 112.25 C146.46093163 117.18631721 153.15883295 124.83206439 156.375 133.90625 C158.82001614 146.00907988 158.20684388 158.9190814 151.421875 169.44921875 C144.96076012 178.25321538 136.91919468 185.02020133 126.1875 187.703125 C123.12281429 188.11904663 120.08905603 188.01704183 117 188 C116.99120064 187.09156593 116.99120064 187.09156593 116.98222351 186.16477966 C116.9176481 179.7877059 116.83307477 173.41110734 116.73754883 167.03442383 C116.70455751 164.66339434 116.67644786 162.29229117 116.65356445 159.92114258 C116.35235788 129.52491328 110.76563387 104.02191437 88.58984375 81.55859375 C68.42934697 62.67609993 45.0578688 56.84962579 18.375 56.375 C16.58982619 56.33674859 14.80466942 56.2976929 13.01953125 56.2578125 C8.67978428 56.16110505 4.3401836 56.0809259 0 56 C0 61.28 0 66.56 0 72 C2.31 72.33 4.62 72.66 7 73 C11.98853885 75.6469798 15.78928947 79.37748767 19 84 C19 84.66 19 85.32 19 86 C20.01815796 85.9685791 20.01815796 85.9685791 21.05688477 85.93652344 C43.79296308 85.32843197 59.98129397 87.47852031 77.875 102.8125 C87.44415164 111.92266617 95.34102549 125.18782581 96.16113281 138.64379883 C96.20675386 141.7001437 96.23522462 144.75584393 96.25 147.8125 C96.2809375 149.39514648 96.2809375 149.39514648 96.3125 151.00976562 C96.3441148 157.35248388 95.75508029 162.28109753 93 168 C92.47921875 169.16402344 91.9584375 170.32804688 91.421875 171.52734375 C83.27467843 188.14534048 72.47526098 199.15058627 55 206 C48.19393582 207.77259709 41.62408511 208.29753254 34.6159668 208.29052734 C33.63077057 208.29724457 32.64557434 208.30396179 31.63052368 208.31088257 C28.40336943 208.32973727 25.1764245 208.33378028 21.94921875 208.3359375 C19.68536802 208.34237363 17.4215181 208.34910259 15.15766907 208.35610962 C10.42288282 208.36805074 5.68816937 208.37179366 0.95336914 208.37060547 C-5.08522026 208.37040235 -11.12333868 208.39771161 -17.1618166 208.43214989 C-21.83497726 208.45448939 -26.50802578 208.45844086 -31.18123436 208.45738602 C-33.4061667 208.45973108 -35.63110265 208.46849218 -37.85598183 208.48405075 C-57.58238982 208.60909889 -74.0320545 206.06298242 -89.1328125 191.99609375 C-103.31395008 176.83592366 -107.63391613 161.27625428 -107.3125 141.07421875 C-107.07081347 134.44697264 -105.99141463 128.94531936 -103 123 C-102.59910156 122.10023438 -102.19820313 121.20046875 -101.78515625 120.2734375 C-94.51168707 105.30484874 -81.43596344 94.3723774 -66 88.5 C-60.35757981 86.59568319 -54.89141369 85.87169374 -48.9453125 85.90234375 C-47.83671875 85.90556641 -46.728125 85.90878906 -45.5859375 85.91210938 C-44.44382812 85.92048828 -43.30171875 85.92886719 -42.125 85.9375 C-40.37703125 85.94426758 -40.37703125 85.94426758 -38.59375 85.95117188 C-35.72911355 85.96291219 -32.86458367 85.9793343 -30 86 C-29.71898437 85.22914063 -29.43796875 84.45828125 -29.1484375 83.6640625 C-27.17113975 79.07726976 -23.21838649 75.60547401 -19 73 C-15.535 72.01 -15.535 72.01 -12 71 C-11.67 66.05 -11.34 61.1 -11 56 C-15.97684939 56.06998211 -20.95294443 56.15844279 -25.92919922 56.26245117 C-27.61433377 56.29525768 -29.29956658 56.32341961 -30.98486328 56.34643555 C-59.1652165 56.74133018 -82.32546336 64.07832306 -102.62011719 84.53808594 C-120.18193557 103.143919 -128.1056487 127.38816812 -127.42578125 152.62109375 C-126.33932512 171.65649495 -118.01710486 191.52820593 -105.69921875 205.87890625 C-104 208 -104 208 -103.01953125 210.15234375 C-101.71092843 212.523873 -100.42692485 212.88091799 -98 214 C-96.72260803 215.15798359 -95.47526149 216.34949112 -94.25 217.5625 C-83.96272194 226.83791465 -71.25421624 232.41661255 -58 236 C-57.33991943 236.18111328 -56.67983887 236.36222656 -55.99975586 236.54882812 C-49.51265263 238.17666424 -43.10223169 238.4321687 -36.4375 238.625 C-34.78137695 238.68300781 -34.78137695 238.68300781 -33.09179688 238.7421875 C-30.39468875 238.83559384 -27.6975723 238.92136476 -25 239 C-24.7110083 238.21971436 -24.4220166 237.43942871 -24.12426758 236.63549805 C-22.79325988 233.51536166 -21.23691748 232.02770813 -18.6875 229.8125 C-17.92824219 229.13832031 -17.16898438 228.46414063 -16.38671875 227.76953125 C-11.52279494 224.16338152 -7.56874557 223.72580566 -1.5625 223.75 C0.35369141 223.74226563 0.35369141 223.74226563 2.30859375 223.734375 C9.69838643 224.26612728 16.60092791 227.2487349 21.62109375 232.7890625 C24.57394893 236.98830698 25.75514648 240.63006142 25.41015625 245.76953125 C24.11904961 252.79069213 20.75959221 256.74622264 15 260.7734375 C8.79852747 264.57668433 2.28648207 265.91081026 -5 265 C-10.90023263 263.40063919 -16.7261437 261.53287789 -21 257 C-21.65935547 255.22109375 -21.65935547 255.22109375 -22.33203125 253.40625 C-23.31130754 251.45153913 -23.31130754 251.45153913 -25 250 C-29.23427493 249.02377877 -33.4239531 249.21769857 -37.75 249.3125 C-53.23811511 249.20181937 -65.90434714 246.73195746 -80 240 C-80.89976562 239.57074219 -81.79953125 239.14148438 -82.7265625 238.69921875 C-102.17914319 228.74869116 -121.08674124 210.7668393 -129 190 C-129 189.34 -129 188.68 -129 188 C-130.0725 188.103125 -131.145 188.20625 -132.25 188.3125 C-141.92824351 188.24410252 -150.00062782 182.99244694 -156.73828125 176.4609375 C-166.75319396 165.56388222 -168.62814728 155.91938099 -168.3046875 141.57421875 C-167.80858415 131.46150054 -162.97359598 124.14134572 -156 117 C-147.58468384 109.89373302 -140.02743183 106.31078551 -129 107 C-128.89945313 106.29359375 -128.79890625 105.5871875 -128.6953125 104.859375 C-124.23332429 86.51007518 -104.39422093 68.7376867 -88.8515625 59.18359375 C-73.81008983 50.42667717 -56.80341424 44.78641406 -39.3203125 44.90234375 C-38.50754852 44.9037587 -37.69478455 44.90517365 -36.85739136 44.90663147 C-34.27988899 44.91219665 -31.7024758 44.9247426 -29.125 44.9375 C-27.36979293 44.9425195 -25.61458448 44.94708162 -23.859375 44.95117188 C-19.57288268 44.96215466 -15.28645643 44.97939508 -11 45 C-11.07528513 42.40820138 -11.17347172 39.82073919 -11.28515625 37.23046875 C-11.30404907 36.49824097 -11.32294189 35.76601318 -11.34240723 35.01159668 C-11.50190454 31.68480366 -11.66957081 29.45833252 -13.64428711 26.71923828 C-15.37198059 25.36389862 -17.15927546 24.19386615 -19 23 C-21.41935895 19.00279825 -21.72865282 14.57881834 -21 10 C-16.08558291 0.53519671 -10.22303171 -1.35937192 0 0 Z " fill="#131313" transform="translate(250,72)"/>
<path d="M0 0 C0.77085937 0.23203125 1.54171875 0.4640625 2.3359375 0.703125 C3.11195313 0.92484375 3.88796875 1.1465625 4.6875 1.375 C5.35523438 1.56578125 6.02296875 1.7565625 6.7109375 1.953125 C7.3709375 1.953125 8.0309375 1.953125 8.7109375 1.953125 C7.28555893 5.18542287 5.52865803 7.3554509 3.0859375 9.890625 C-13.16926384 27.91269605 -20.55348308 51.71242926 -19.75 75.6796875 C-18.50283299 94.71131514 -10.32746062 114.45652365 2.01171875 128.83203125 C3.7109375 130.953125 3.7109375 130.953125 4.69140625 133.10546875 C6.00000907 135.476998 7.28401265 135.83404299 9.7109375 136.953125 C10.98832947 138.11110859 12.23567601 139.30261612 13.4609375 140.515625 C23.74821556 149.79103965 36.45672126 155.36973755 49.7109375 158.953125 C50.37101807 159.13423828 51.03109863 159.31535156 51.71118164 159.50195312 C58.19828487 161.12978924 64.60870581 161.3852937 71.2734375 161.578125 C72.92956055 161.63613281 72.92956055 161.63613281 74.61914062 161.6953125 C77.31624875 161.78871884 80.0133652 161.87448976 82.7109375 161.953125 C82.9999292 161.17283936 83.2889209 160.39255371 83.58666992 159.58862305 C84.91767762 156.46848666 86.47402002 154.98083313 89.0234375 152.765625 C89.78269531 152.09144531 90.54195312 151.41726563 91.32421875 150.72265625 C96.18814256 147.11650652 100.14219193 146.67893066 106.1484375 146.703125 C108.06462891 146.69539063 108.06462891 146.69539063 110.01953125 146.6875 C117.40932393 147.21925228 124.31186541 150.2018599 129.33203125 155.7421875 C132.28488643 159.94143198 133.46608398 163.58318642 133.12109375 168.72265625 C131.82998711 175.74381713 128.47052971 179.69934764 122.7109375 183.7265625 C116.50946497 187.52980933 109.99741957 188.86393526 102.7109375 187.953125 C96.81070487 186.35376419 90.9847938 184.48600289 86.7109375 179.953125 C86.05158203 178.17421875 86.05158203 178.17421875 85.37890625 176.359375 C84.39962996 174.40466413 84.39962996 174.40466413 82.7109375 172.953125 C78.47666257 171.97690377 74.2869844 172.17082357 69.9609375 172.265625 C54.47282239 172.15494437 41.80659036 169.68508246 27.7109375 162.953125 C26.81117188 162.52386719 25.91140625 162.09460938 24.984375 161.65234375 C5.53179431 151.70181616 -13.37580374 133.7199643 -21.2890625 112.953125 C-21.2890625 112.293125 -21.2890625 111.633125 -21.2890625 110.953125 C-22.3615625 111.05625 -23.4340625 111.159375 -24.5390625 111.265625 C-34.21730601 111.19722752 -42.28969032 105.94557194 -49.02734375 99.4140625 C-59.04225646 88.51700722 -60.91720978 78.87250599 -60.59375 64.52734375 C-60.09764665 54.41462554 -55.26265848 47.09447072 -48.2890625 39.953125 C-39.87374634 32.84685802 -32.31649433 29.26391051 -21.2890625 29.953125 C-21.18851563 29.24671875 -21.08796875 28.5403125 -20.984375 27.8125 C-18.84219221 19.00307415 -12.1456262 10.72435016 -6.2890625 3.953125 C-5.65613281 3.19515625 -5.02320313 2.4371875 -4.37109375 1.65625 C-2.2890625 -0.046875 -2.2890625 -0.046875 0 0 Z M-1.2890625 1.953125 C-0.2890625 3.953125 -0.2890625 3.953125 -0.2890625 3.953125 Z " fill="#141414" transform="translate(142.2890625,149.046875)"/>
<path d="M0 0 C16.83 0 33.66 0 51 0 C51 6.43918146 48.80478684 8.77055743 44.875 13.625 C37.73407775 19.52402273 30.38239862 20.61091429 21.27734375 20.32421875 C13.40595533 19.54552359 8.28966479 16.28966479 2.75 10.75 C1 8 1 8 0 0 Z " fill="#F8F8F8" transform="translate(219,232)"/>
<path d="M0 0 C3.1521363 0.06247477 5.20893007 0.50429272 7.8125 2.3125 C10.75158436 5.91287834 11.08245019 7.70074711 10.78125 12.21875 C10.09239736 15.38747216 8.64450445 17.18017228 6.3125 19.375 C3.09555636 20.98347182 -0.20887222 20.98809149 -3.6875 20.375 C-7.60521408 17.20748649 -9.49598291 15.06673433 -10.0625 10.0625 C-9.59536625 5.46901813 -8.16709782 4.26052015 -4.6875 1.375 C-3.6875 0.375 -3.6875 0.375 0 0 Z " fill="#F4F4F4" transform="translate(289.6875,198.625)"/>
<path d="M0 0 C2.87849337 1.59666429 5.03234993 3.35324946 7 6 C7.70771676 10.03398552 7.4111303 12.1190065 5.6875 15.8125 C3.74275565 18.3334649 2.09490767 19.78675955 -1.0859375 20.40625 C-5.59103547 20.59075913 -7.4176045 20.46353927 -11.0625 17.5625 C-13.31707479 14.23581971 -13.78840516 11.09682932 -13.546875 7.125 C-13 5 -13 5 -10.4375 1.9375 C-6.37750891 -0.35085861 -4.57878724 -0.88362561 0 0 Z " fill="#F5F5F5" transform="translate(202,199)"/>
<path d="M0 0 C0.33 0.66 0.66 1.32 1 2 C0.0980639 3.48819457 -0.82214129 4.96532813 -1.75 6.4375 C-2.51570312 7.67306641 -2.51570312 7.67306641 -3.296875 8.93359375 C-5.1792182 11.21744593 -6.1157546 11.65514457 -9 12 C-7.55575365 8.76138697 -5.74227753 6.38030837 -3.375 3.75 C-2.74335938 3.04359375 -2.11171875 2.3371875 -1.4609375 1.609375 C-0.97882813 1.07828125 -0.49671875 0.5471875 0 0 Z " fill="#222222" transform="translate(162,174)"/>
</svg>
